<svg width="1024" height="1024" viewBox="0 0 1024 1024" fill="none" xmlns="http://www.w3.org/2000/svg">
<path d="M914.999 472.38C915.111 444.807 907.728 417.694 893.597 393.787C879.465 369.881 859.087 350.029 834.527 336.242C835.132 329.474 835.132 322.668 834.527 315.9C834.527 284.774 821.809 254.923 799.172 232.914C776.535 210.905 745.832 198.54 713.818 198.54H706.576C699.875 180.479 688.719 164.292 674.087 151.398C659.454 138.505 641.791 129.299 622.646 124.588C603.502 119.877 583.462 119.804 564.282 124.376C545.102 128.949 527.369 138.027 512.638 150.814C497.906 138.027 480.173 128.949 460.993 124.376C441.814 119.804 421.773 119.877 402.629 124.588C383.484 129.299 365.821 138.505 351.189 151.398C336.556 164.292 325.4 180.479 318.699 198.54H311.457C279.443 198.54 248.74 210.905 226.103 232.914C203.466 254.923 190.749 284.774 190.749 315.9C190.143 322.668 190.143 329.474 190.749 336.242C167.913 348.792 148.578 366.578 134.428 388.052C120.277 409.526 111.739 434.037 109.558 459.452C107.376 484.867 111.617 510.416 121.91 533.873C132.204 557.331 148.239 577.987 168.619 594.043C155.432 617.956 148.867 644.791 149.569 671.915C150.27 699.04 158.213 725.52 172.619 748.759C187.025 771.997 207.398 791.194 231.738 804.466C256.079 817.737 283.551 824.628 311.457 824.46H318.699C325.4 842.521 336.556 858.708 351.189 871.602C365.821 884.495 383.484 893.701 402.629 898.412C421.773 903.123 441.814 903.196 460.993 898.624C480.173 894.051 497.906 884.973 512.638 872.186C527.369 884.973 545.102 894.051 564.282 898.624C583.462 903.196 603.502 903.123 622.646 898.412C641.791 893.701 659.454 884.495 674.087 871.602C688.719 858.708 699.875 842.521 706.576 824.46H713.818C741.554 824.289 768.774 817.153 792.838 803.742C816.901 790.332 836.992 771.103 851.161 747.92C865.33 724.737 873.096 698.387 873.706 671.427C874.317 644.466 867.751 617.81 854.645 594.043C873.412 579.434 888.575 560.923 899.019 539.869C909.463 518.816 914.924 495.754 914.999 472.38ZM472.401 376.536C463.638 371.663 454.489 367.477 445.041 364.018C434.903 360.698 423.824 361.429 414.241 366.051C404.658 370.673 397.356 378.807 393.941 388.663C390.526 398.52 391.278 409.291 396.032 418.609C400.786 427.926 409.152 435.026 419.29 438.346C434.778 443.79 448.176 453.723 457.674 466.805C467.171 479.887 472.312 495.487 472.401 511.5V572.136C463.638 567.263 454.489 563.077 445.041 559.618C434.903 556.297 423.824 557.029 414.241 561.651C404.658 566.273 397.356 574.407 393.941 584.263C390.526 594.12 391.278 604.891 396.032 614.209C400.786 623.526 409.152 630.625 419.29 633.946C434.778 639.39 448.176 649.323 457.674 662.405C467.171 675.487 472.312 691.087 472.401 707.1V785.34C472.401 795.715 468.162 805.666 460.617 813.002C453.071 820.338 442.837 824.46 432.165 824.46C424.381 824.411 416.779 822.167 410.28 818C403.781 813.834 398.664 807.925 395.55 800.988C402.297 797.139 408.751 792.824 414.864 788.078C418.932 784.79 422.295 780.756 424.76 776.204C427.225 771.653 428.743 766.674 429.229 761.552C429.715 756.43 429.158 751.265 427.591 746.352C426.023 741.439 423.476 736.875 420.094 732.919C416.713 728.963 412.563 725.694 407.882 723.298C403.2 720.901 398.079 719.425 392.811 718.952C387.543 718.48 382.231 719.021 377.178 720.545C372.125 722.069 367.43 724.546 363.362 727.833C348.833 739.725 330.448 746.238 311.457 746.22C290.114 746.22 269.646 737.977 254.555 723.304C239.463 708.631 230.985 688.73 230.985 667.98C231.177 653.255 235.64 638.882 243.86 626.513C252.89 628.087 262.047 628.873 271.221 628.86C281.892 628.86 292.126 624.738 299.672 617.402C307.218 610.066 311.457 600.115 311.457 589.74C311.457 579.365 307.218 569.414 299.672 562.078C292.126 554.742 281.892 550.62 271.221 550.62C261.717 550.673 252.291 548.947 243.458 545.534C228.987 540.46 216.315 531.459 206.943 519.598C197.572 507.737 191.893 493.513 190.581 478.611C189.268 463.708 192.376 448.752 199.537 435.515C206.698 422.277 217.612 411.313 230.985 403.92C236.702 409.035 242.899 413.618 249.493 417.612C258.777 422.8 269.801 424.189 280.138 421.475C290.476 418.76 299.281 412.164 304.617 403.138C309.952 394.111 311.382 383.394 308.59 373.343C305.798 363.292 299.014 354.731 289.729 349.543C284.065 346.505 279.341 342.048 276.049 336.634C272.329 330.353 270.646 323.126 271.221 315.9C271.221 305.525 275.46 295.575 283.006 288.238C290.551 280.902 300.786 276.78 311.457 276.78C314.26 276.4 317.104 276.4 319.907 276.78C322.037 283.066 324.59 289.208 327.551 295.166C330.18 299.649 333.695 303.582 337.893 306.738C342.092 309.895 346.891 312.212 352.015 313.558C357.139 314.903 362.485 315.25 367.747 314.577C373.009 313.905 378.083 312.227 382.675 309.641C391.595 304.423 398.089 296.046 400.79 286.27C403.491 276.495 402.19 266.082 397.16 257.22C393.784 251.219 391.987 244.5 391.929 237.66C391.929 227.285 396.168 217.335 403.714 209.998C411.26 202.662 421.494 198.54 432.165 198.54C442.837 198.54 453.071 202.662 460.617 209.998C468.162 217.335 472.401 227.285 472.401 237.66V376.536ZM781.817 545.534C772.984 548.947 763.559 550.673 754.054 550.62C743.383 550.62 733.149 554.742 725.603 562.078C718.057 569.414 713.818 579.365 713.818 589.74C713.818 600.115 718.057 610.066 725.603 617.402C733.149 624.738 743.383 628.86 754.054 628.86C763.228 628.873 772.385 628.087 781.415 626.513C789.635 638.882 794.098 653.255 794.29 667.98C794.29 688.73 785.812 708.631 770.721 723.304C755.629 737.977 735.161 746.22 713.818 746.22C694.827 746.238 676.442 739.725 661.914 727.833C653.697 721.193 643.103 717.999 632.464 718.952C621.824 719.906 612.01 724.93 605.181 732.919C598.351 740.908 595.065 751.208 596.046 761.552C597.027 771.896 602.194 781.438 610.411 788.078C616.524 792.824 622.978 797.139 629.725 800.988C626.611 807.925 621.495 813.834 614.996 818C608.497 822.167 600.894 824.411 593.11 824.46C582.439 824.46 572.204 820.338 564.659 813.002C557.113 805.666 552.874 795.715 552.874 785.34V707.1C552.963 691.087 558.104 675.487 567.602 662.405C577.099 649.323 590.497 639.39 605.985 633.946C616.123 630.625 624.489 623.526 629.243 614.209C633.997 604.891 634.749 594.12 631.334 584.263C627.919 574.407 620.617 566.273 611.034 561.651C601.451 557.029 590.372 556.297 580.234 559.618C570.786 563.077 561.637 567.263 552.874 572.136V511.5C552.963 495.487 558.104 479.887 567.602 466.805C577.099 453.723 590.497 443.79 605.985 438.346C616.123 435.026 624.489 427.926 629.243 418.609C633.997 409.291 634.749 398.52 631.334 388.663C627.919 378.807 620.617 370.673 611.034 366.051C601.451 361.429 590.372 360.698 580.234 364.018C570.786 367.477 561.637 371.663 552.874 376.536V237.66C552.874 227.285 557.113 217.335 564.659 209.998C572.204 202.662 582.439 198.54 593.11 198.54C603.781 198.54 614.015 202.662 621.561 209.998C629.107 217.335 633.346 227.285 633.346 237.66C633.288 244.5 631.491 251.219 628.115 257.22C625.438 261.662 623.689 266.573 622.968 271.673C622.248 276.773 622.569 281.962 623.915 286.941C625.261 291.92 627.604 296.591 630.81 300.688C634.017 304.785 638.023 308.226 642.6 310.814C647.193 313.401 652.266 315.079 657.528 315.751C662.79 316.423 668.137 316.077 673.26 314.731C678.384 313.386 683.183 311.068 687.382 307.912C691.58 304.756 695.095 300.823 697.724 296.34C700.735 290 703.29 283.465 705.369 276.78C708.172 276.4 711.015 276.4 713.818 276.78C724.489 276.78 734.724 280.902 742.269 288.238C749.815 295.575 754.054 305.525 754.054 315.9C753.993 323.569 751.614 331.051 747.214 337.416C743.923 342.493 739.353 346.667 733.936 349.543C724.652 354.731 717.868 363.292 715.076 373.343C712.284 383.394 713.713 394.111 719.049 403.138C724.384 412.164 733.19 418.76 743.527 421.475C753.865 424.189 764.888 422.8 774.172 417.612C781.396 413.814 788.147 409.219 794.29 403.92C807.709 411.182 818.71 422.026 825.995 435.17C833.28 448.315 836.544 463.212 835.401 478.102C834.259 492.992 828.758 507.254 819.549 519.202C810.339 531.151 797.805 540.288 783.427 545.534H781.817Z" fill="#3231C4"/>
<path d="M512 52C773.732 52 985 258.22 985 511.5C985 764.78 773.732 971 512 971C250.268 971 39 764.78 39 511.5C39 258.22 250.268 52 512 52Z" stroke="#1B13A7" stroke-width="38"/>
</svg>
